<svg width="60" height="60" viewBox="0 0 60 60" fill="none" xmlns="http://www.w3.org/2000/svg">
<path d="M6.66667 23.8333H7.16667V23.3333V16.6667C7.16667 15.1028 8.43614 13.8333 10 13.8333H23.3333C24.8972 13.8333 26.1667 15.1028 26.1667 16.6667V23.3333V23.8333H26.6667H33.3333H33.8333V23.3333V16.6667C33.8333 15.1028 35.1028 13.8333 36.6667 13.8333H50C51.5639 13.8333 52.8333 15.1028 52.8333 16.6667V23.3333V23.8333H53.3333C56.7405 23.8333 59.5 26.5928 59.5 30V56.6667C59.5 58.2305 58.2305 59.5 56.6667 59.5H36.6667C35.1028 59.5 33.8333 58.2305 33.8333 56.6667V36.6667V36.1667H33.3333H26.6667H26.1667V36.6667V56.6667C26.1667 58.2305 24.8972 59.5 23.3333 59.5H3.33333C1.76948 59.5 0.5 58.2305 0.5 56.6667V30C0.5 26.5928 3.25948 23.8333 6.66667 23.8333ZM22.8333 6.16667H10.5V0.5H22.8333V6.16667ZM49.5 6.16667H37.1667V0.5H49.5V6.16667Z" fill="#747977" stroke="black"/>
</svg>
