<svg width="32" height="32" viewBox="0 0 42 44" fill="none" xmlns="http://www.w3.org/2000/svg">
<path d="M22.9166 10.9691H18.75V19.7444H10.4167V24.132H18.75V32.9073H22.9166V24.132H31.25V19.7444H22.9166V10.9691ZM20.8333 0C9.33332 0 0 9.8283 0 21.9382C0 34.048 9.33332 43.8763 20.8333 43.8763C32.3333 43.8763 41.6666 34.048 41.6666 21.9382C41.6666 9.8283 32.3333 0 20.8333 0ZM20.8333 39.4887C11.6458 39.4887 4.16666 31.6129 4.16666 21.9382C4.16666 12.2634 11.6458 4.38763 20.8333 4.38763C30.0208 4.38763 37.5 12.2634 37.5 21.9382C37.5 31.6129 30.0208 39.4887 20.8333 39.4887Z" fill="#BBC6C2"/>
</svg>
