<svg width="60" height="60" viewBox="0 0 60 60" fill="none" xmlns="http://www.w3.org/2000/svg">
<path d="M46.8265 15.1855L46.8277 15.189L52 30.0843V50C52 51.0989 51.0989 52 50 52H47.5C46.4011 52 45.5 51.0989 45.5 50V47.5V47H45H15H14.5V47.5V50C14.5 51.0989 13.5989 52 12.5 52H10C8.90114 52 8 51.0989 8 50V30.0843L13.1711 15.1927C13.1713 15.1921 13.1715 15.1915 13.1717 15.1909C13.6299 13.9056 14.823 13 16.25 13H43.75C45.1829 13 46.3943 13.9107 46.8265 15.1855ZM12.0257 27.3419L11.8063 28H12.5H47.5H48.1937L47.9743 27.3419L44.2243 16.0919L44.1104 15.75H43.75H16.25H15.8896L15.7757 16.0919L12.0257 27.3419ZM12 36.25C12 38.6011 13.8989 40.5 16.25 40.5C18.6011 40.5 20.5 38.6011 20.5 36.25C20.5 33.8989 18.6011 32 16.25 32C13.8989 32 12 33.8989 12 36.25ZM39.5 36.25C39.5 38.6011 41.3989 40.5 43.75 40.5C46.1011 40.5 48 38.6011 48 36.25C48 33.8989 46.1011 32 43.75 32C41.3989 32 39.5 33.8989 39.5 36.25Z" fill="#747977" stroke="black"/>
</svg>
