<svg width="43" height="40" viewBox="0 0 43 40" fill="none" xmlns="http://www.w3.org/2000/svg">
<rect x="0.489258" width="41.6724" height="40" rx="10" fill="#63F0CE" fill-opacity="0.1"/>
<path d="M30.0068 19.2334V20C30.0057 21.797 29.3995 23.5456 28.2785 24.9849C27.1576 26.4242 25.582 27.4771 23.7866 27.9866C21.9913 28.4961 20.0725 28.4349 18.3164 27.8122C16.5602 27.1894 15.0609 26.0384 14.0419 24.5309C13.0229 23.0234 12.5389 21.2401 12.6621 19.447C12.7853 17.6538 13.5091 15.947 14.7254 14.5809C15.9418 13.2149 17.5856 12.2628 19.4118 11.8668C21.2379 11.4708 23.1484 11.652 24.8585 12.3834" stroke="#0FAFE9" stroke-linecap="round" stroke-linejoin="round"/>
<path d="M30.0068 13.3333L21.325 21.675L18.7205 19.175" stroke="#0FAFE9" stroke-linecap="round" stroke-linejoin="round"/>
</svg>
