<svg width="10" height="19" viewBox="0 0 10 19" fill="none" xmlns="http://www.w3.org/2000/svg">
<path d="M9.36515 0.00390169L7.03098 0C4.40862 0 2.71393 1.81136 2.71393 4.61492V6.7427H0.367026C0.164226 6.7427 0 6.91399 0 7.12527V10.2082C0 10.4195 0.164413 10.5906 0.367026 10.5906H2.71393V18.3697C2.71393 18.581 2.87816 18.7521 3.08096 18.7521H6.143C6.3458 18.7521 6.51003 18.5808 6.51003 18.3697V10.5906H9.25411C9.45691 10.5906 9.62113 10.4195 9.62113 10.2082L9.62226 7.12527C9.62226 7.02382 9.58349 6.92667 9.51477 6.85488C9.44605 6.78309 9.35242 6.7427 9.25504 6.7427H6.51003V4.93895C6.51003 4.072 6.70833 3.63189 7.79237 3.63189L9.36478 3.6313C9.56739 3.6313 9.73162 3.46002 9.73162 3.24894V0.386267C9.73162 0.175381 9.56758 0.00429186 9.36515 0.00390169Z" fill="#3B5998"/>
</svg>
