<svg width="50" height="50" viewBox="0 0 50 50" fill="none" xmlns="http://www.w3.org/2000/svg">
<path d="M34.375 6.25C30.75 6.25 27.2709 7.9375 25 10.6042C22.7292 7.9375 19.25 6.25 15.625 6.25C9.20835 6.25 4.16669 11.2917 4.16669 17.7083C4.16669 25.5833 11.25 32 21.9792 41.75L25 44.4792L28.0209 41.7292C38.75 32 45.8334 25.5833 45.8334 17.7083C45.8334 11.2917 40.7917 6.25 34.375 6.25ZM25.2084 38.6458L25 38.8542L24.7917 38.6458C14.875 29.6667 8.33335 23.7292 8.33335 17.7083C8.33335 13.5417 11.4584 10.4167 15.625 10.4167C18.8334 10.4167 21.9584 12.4792 23.0625 15.3333H26.9584C28.0417 12.4792 31.1667 10.4167 34.375 10.4167C38.5417 10.4167 41.6667 13.5417 41.6667 17.7083C41.6667 23.7292 35.125 29.6667 25.2084 38.6458Z" fill="#333"/>
</svg>
