<svg width="119" height="121" viewBox="0 0 119 121" fill="none" xmlns="http://www.w3.org/2000/svg">
<path d="M36.7576 61.9127H31.0876V67.7327H27.1276V61.9127H21.4576V58.2527H27.1276V52.4327H31.0876V58.2527H36.7576V61.9127ZM41.9484 66.0227C43.8684 64.4227 45.3984 63.0927 46.5384 62.0327C47.6784 60.9527 48.6284 59.8327 49.3884 58.6727C50.1484 57.5127 50.5284 56.3727 50.5284 55.2527C50.5284 54.2327 50.2884 53.4327 49.8084 52.8527C49.3284 52.2727 48.5884 51.9827 47.5884 51.9827C46.5884 51.9827 45.8184 52.3227 45.2784 53.0027C44.7384 53.6627 44.4584 54.5727 44.4384 55.7327H40.3584C40.4384 53.3327 41.1484 51.5127 42.4884 50.2727C43.8484 49.0327 45.5684 48.4127 47.6484 48.4127C49.9284 48.4127 51.6784 49.0227 52.8984 50.2427C54.1184 51.4427 54.7284 53.0327 54.7284 55.0127C54.7284 56.5727 54.3084 58.0627 53.4684 59.4827C52.6284 60.9027 51.6684 62.1427 50.5884 63.2027C49.5084 64.2427 48.0984 65.5027 46.3584 66.9827H55.2084V70.4627H40.3884V67.3427L41.9484 66.0227ZM69.021 54.3527C68.821 53.5127 68.471 52.8827 67.971 52.4627C67.491 52.0427 66.791 51.8327 65.871 51.8327C64.491 51.8327 63.471 52.3927 62.811 53.5127C62.171 54.6127 61.841 56.4127 61.821 58.9127C62.301 58.1127 63.001 57.4927 63.921 57.0527C64.841 56.5927 65.841 56.3627 66.921 56.3627C68.221 56.3627 69.371 56.6427 70.371 57.2027C71.371 57.7627 72.151 58.5827 72.711 59.6627C73.271 60.7227 73.551 62.0027 73.551 63.5027C73.551 64.9227 73.261 66.1927 72.681 67.3127C72.121 68.4127 71.291 69.2727 70.191 69.8927C69.091 70.5127 67.781 70.8227 66.261 70.8227C64.181 70.8227 62.541 70.3627 61.341 69.4427C60.161 68.5227 59.331 67.2427 58.851 65.6027C58.391 63.9427 58.161 61.9027 58.161 59.4827C58.161 55.8227 58.791 53.0627 60.051 51.2027C61.311 49.3227 63.301 48.3827 66.021 48.3827C68.121 48.3827 69.751 48.9527 70.911 50.0927C72.071 51.2327 72.741 52.6527 72.921 54.3527H69.021ZM65.961 59.8127C64.901 59.8127 64.011 60.1227 63.291 60.7427C62.571 61.3627 62.211 62.2627 62.211 63.4427C62.211 64.6227 62.541 65.5527 63.201 66.2327C63.881 66.9127 64.831 67.2527 66.051 67.2527C67.131 67.2527 67.981 66.9227 68.601 66.2627C69.241 65.6027 69.561 64.7127 69.561 63.5927C69.561 62.4327 69.251 61.5127 68.631 60.8327C68.031 60.1527 67.141 59.8127 65.961 59.8127ZM76.2164 54.2627C76.2164 52.7427 76.6564 51.5527 77.5364 50.6927C78.4364 49.8327 79.5864 49.4027 80.9864 49.4027C82.3864 49.4027 83.5264 49.8327 84.4064 50.6927C85.3064 51.5527 85.7564 52.7427 85.7564 54.2627C85.7564 55.8027 85.3064 57.0027 84.4064 57.8627C83.5264 58.7227 82.3864 59.1527 80.9864 59.1527C79.5864 59.1527 78.4364 58.7227 77.5364 57.8627C76.6564 57.0027 76.2164 55.8027 76.2164 54.2627ZM95.4764 49.7627L83.6864 70.7627H79.6064L91.3664 49.7627H95.4764ZM80.9564 51.9227C79.8564 51.9227 79.3064 52.7027 79.3064 54.2627C79.3064 55.8427 79.8564 56.6327 80.9564 56.6327C81.4964 56.6327 81.9164 56.4427 82.2164 56.0627C82.5164 55.6627 82.6664 55.0627 82.6664 54.2627C82.6664 52.7027 82.0964 51.9227 80.9564 51.9227ZM89.3864 66.2327C89.3864 64.6927 89.8264 63.5027 90.7064 62.6627C91.6064 61.8027 92.7564 61.3727 94.1564 61.3727C95.5564 61.3727 96.6864 61.8027 97.5464 62.6627C98.4264 63.5027 98.8664 64.6927 98.8664 66.2327C98.8664 67.7727 98.4264 68.9727 97.5464 69.8327C96.6864 70.6927 95.5564 71.1227 94.1564 71.1227C92.7364 71.1227 91.5864 70.6927 90.7064 69.8327C89.8264 68.9727 89.3864 67.7727 89.3864 66.2327ZM94.1264 63.8927C92.9864 63.8927 92.4164 64.6727 92.4164 66.2327C92.4164 67.8127 92.9864 68.6027 94.1264 68.6027C95.2464 68.6027 95.8064 67.8127 95.8064 66.2327C95.8064 64.6727 95.2464 63.8927 94.1264 63.8927Z" fill="#63F0CE"/>
<path d="M59.2237 0.462402C47.5057 0.468426 36.0525 3.97501 26.3123 10.5388C16.572 17.1026 8.98195 26.4289 4.50179 37.3386C0.0216367 48.2483 -1.14748 60.2514 1.14226 71.8305C3.432 83.4095 9.07778 94.0446 17.3658 102.391C25.6538 110.737 36.2119 116.42 47.7052 118.722C59.1985 121.023 71.111 119.839 81.9364 115.319C92.7619 110.799 102.014 103.147 108.524 93.33C115.033 83.5127 118.508 71.9712 118.508 60.1645C118.492 44.3302 112.24 29.1495 101.124 17.9558C90.0091 6.76211 74.9392 0.470465 59.2237 0.462402ZM59.2237 108.81C49.6569 108.81 40.305 105.951 32.3505 100.596C24.396 95.2407 18.1962 87.6291 14.5352 78.7237C10.8741 69.8183 9.91621 60.0191 11.7826 50.5651C13.649 41.1112 18.2558 32.4272 25.0206 25.6113C31.7853 18.7954 40.4041 14.1537 49.7871 12.2732C59.1701 10.3927 68.8958 11.3578 77.7344 15.0465C86.5729 18.7353 94.1274 24.982 99.4424 32.9966C104.757 41.0113 107.594 50.434 107.594 60.0731C107.594 72.9988 102.498 85.3951 93.4269 94.535C84.3556 103.675 72.0524 108.81 59.2237 108.81Z" fill="#63F0CE" fill-opacity="0.1"/>
<path d="M59.1925 120.323C58.4228 120.336 57.6586 120.192 56.9452 119.901C56.2318 119.61 55.5837 119.177 55.0394 118.629C54.4951 118.081 54.0658 117.428 53.7769 116.709C53.4881 115.99 53.3455 115.22 53.3578 114.445C53.3568 112.865 53.9647 111.347 55.0532 110.211C56.1418 109.074 57.6258 108.408 59.1925 108.353C70.5667 108.279 81.5586 104.207 90.2705 96.8386C97.6797 90.4092 102.972 81.8608 105.445 72.3289C107.918 62.797 107.455 52.7326 104.117 43.4723C100.661 34.2656 94.5196 26.329 86.5007 20.7071C78.4818 15.0851 68.9614 12.0414 59.1925 11.9764C58.1565 11.9746 57.1404 11.6905 56.2516 11.1543C55.3628 10.6181 54.6345 9.84963 54.1438 8.93038C53.633 7.99762 53.3651 6.94967 53.3651 5.88436C53.3651 4.81904 53.633 3.77109 54.1438 2.83833C54.6619 1.93821 55.4149 1.19829 56.3209 0.69889C57.2269 0.19949 58.2514 -0.0403071 59.2831 0.00553039C68.9221 0.0143815 78.4157 2.3744 86.9526 6.88391C95.4895 11.3934 102.816 17.9184 108.306 25.9011C113.796 33.8839 117.286 43.0872 118.478 52.7246C119.67 62.3619 118.528 72.1468 115.151 81.243C110.776 92.6326 103.116 102.442 93.1591 109.407C83.2021 116.372 71.4036 120.174 59.2831 120.323H59.1925Z" fill="#63F0CE"/>
</svg>
