<svg width="18" height="20" viewBox="0 0 18 20" fill="none" xmlns="http://www.w3.org/2000/svg">
<g clip-path="url(#clip0)">
<path d="M12.375 0.869141H5.625C2.51888 0.869141 0 3.49326 0 6.72917V13.7612C0 16.9971 2.51888 19.6212 5.625 19.6212H12.375C15.4811 19.6212 18 16.9971 18 13.7612V6.72917C18 3.49326 15.4811 0.869141 12.375 0.869141ZM16.3125 13.7612C16.3125 16.0232 14.5463 17.8632 12.375 17.8632H5.625C3.45375 17.8632 1.6875 16.0232 1.6875 13.7612V6.72917C1.6875 4.4672 3.45375 2.62715 5.625 2.62715H12.375C14.5463 2.62715 16.3125 4.4672 16.3125 6.72917V13.7612Z" fill="#C32AA3"/>
<path d="M9 5.55713C6.51487 5.55713 4.5 7.65619 4.5 10.2452C4.5 12.8341 6.51487 14.9332 9 14.9332C11.4851 14.9332 13.5 12.8341 13.5 10.2452C13.5 7.65619 11.4851 5.55713 9 5.55713ZM9 13.1752C7.44975 13.1752 6.1875 11.8602 6.1875 10.2452C6.1875 8.62896 7.44975 7.31514 9 7.31514C10.5503 7.31514 11.8125 8.62896 11.8125 10.2452C11.8125 11.8602 10.5503 13.1752 9 13.1752Z" fill="#C32AA3"/>
<path d="M13.8376 5.83017C14.1688 5.83017 14.4373 5.55049 14.4373 5.20549C14.4373 4.86049 14.1688 4.58081 13.8376 4.58081C13.5065 4.58081 13.238 4.86049 13.238 5.20549C13.238 5.55049 13.5065 5.83017 13.8376 5.83017Z" fill="#C32AA3"/>
</g>
<defs>
<clipPath id="clip0">
<rect width="18" height="18.7521" fill="white" transform="translate(0 0.869141)"/>
</clipPath>
</defs>
</svg>
