<svg width="50" height="50" viewBox="0 0 50 50" fill="none" xmlns="http://www.w3.org/2000/svg">
<path d="M4.05405 20C1.81081 20 0 22.2333 0 25C0 27.7667 1.81081 30 4.05405 30C6.2973 30 8.10811 27.7667 8.10811 25C8.10811 22.2333 6.2973 20 4.05405 20ZM4.05405 0C1.81081 0 0 2.23333 0 5C0 7.76667 1.81081 10 4.05405 10C6.2973 10 8.10811 7.76667 8.10811 5C8.10811 2.23333 6.2973 0 4.05405 0ZM4.05405 40C1.81081 40 0 42.2667 0 45C0 47.7333 1.83784 50 4.05405 50C6.27027 50 8.10811 47.7333 8.10811 45C8.10811 42.2667 6.2973 40 4.05405 40ZM12.1622 48.3333H50V41.6667H12.1622V48.3333ZM12.1622 28.3333H50V21.6667H12.1622V28.3333ZM12.1622 1.66667V8.33333H50V1.66667H12.1622Z" fill="#333"/>
</svg>
