<svg width="42" height="40" viewBox="0 0 42 40" fill="none" xmlns="http://www.w3.org/2000/svg">
<rect x="0.267456" width="41.6724" height="40" rx="10" fill="#63F0CE" fill-opacity="0.1"/>
<path d="M21.1041 28.3334C25.8989 28.3334 29.7858 24.6024 29.7858 20C29.7858 15.3976 25.8989 11.6667 21.1041 11.6667C16.3093 11.6667 12.4224 15.3976 12.4224 20C12.4224 24.6024 16.3093 28.3334 21.1041 28.3334Z" stroke="#0FAFE9" stroke-linecap="round" stroke-linejoin="round"/>
<path d="M21.1041 24.1667H21.1128" stroke="#0FAFE9" stroke-linecap="round" stroke-linejoin="round"/>
<path d="M18.5778 17.5C18.7819 16.943 19.1847 16.4734 19.715 16.1743C20.2453 15.8751 20.8688 15.7658 21.475 15.8656C22.0812 15.9654 22.6311 16.2679 23.0272 16.7196C23.4233 17.1713 23.6401 17.7429 23.6392 18.3333C23.6392 20 21.0347 20.8333 21.0347 20.8333" stroke="#0FAFE9" stroke-linecap="round" stroke-linejoin="round"/>
</svg>
