<svg width="36" height="35" viewBox="0 0 36 35" fill="none" xmlns="http://www.w3.org/2000/svg">
<path d="M19.4734 10.2083H16.5869V16.0417H10.8139V18.9583H16.5869V24.7917H19.4734V18.9583H25.2463V16.0417H19.4734V10.2083ZM18.0301 2.91666C10.0634 2.91666 3.59772 9.44999 3.59772 17.5C3.59772 25.55 10.0634 32.0833 18.0301 32.0833C25.9968 32.0833 32.4625 25.55 32.4625 17.5C32.4625 9.44999 25.9968 2.91666 18.0301 2.91666ZM18.0301 29.1667C11.6654 29.1667 6.4842 23.9312 6.4842 17.5C6.4842 11.0687 11.6654 5.83332 18.0301 5.83332C24.3948 5.83332 29.576 11.0687 29.576 17.5C29.576 23.9312 24.3948 29.1667 18.0301 29.1667Z" fill="white"/>
</svg>
