<svg width="18" height="16" viewBox="0 0 18 16" fill="none" xmlns="http://www.w3.org/2000/svg">
<path d="M18 2.43092C17.3306 2.73681 16.6174 2.93957 15.8737 3.03801C16.6388 2.56218 17.2226 1.81444 17.4971 0.913167C16.7839 1.35619 15.9964 1.66911 15.1571 1.84374C14.4799 1.09248 13.5146 0.627197 12.4616 0.627197C10.4186 0.627197 8.77387 2.35473 8.77387 4.47255C8.77387 4.77727 8.79862 5.07027 8.85938 5.34921C5.7915 5.19333 3.07687 3.66152 1.25325 1.32806C0.934875 1.90351 0.748125 2.56218 0.748125 3.27124C0.748125 4.60264 1.40625 5.78285 2.38725 6.46613C1.79437 6.45441 1.21275 6.2751 0.72 5.99264C0.72 6.00436 0.72 6.0196 0.72 6.03483C0.72 7.90301 1.99912 9.45475 3.6765 9.81221C3.37612 9.89777 3.04875 9.93879 2.709 9.93879C2.47275 9.93879 2.23425 9.92472 2.01038 9.87316C2.4885 11.3956 3.84525 12.5149 5.4585 12.5512C4.203 13.5744 2.60888 14.1908 0.883125 14.1908C0.5805 14.1908 0.29025 14.1768 0 14.1381C1.63462 15.2363 3.57188 15.8633 5.661 15.8633C12.4515 15.8633 16.164 10.0032 16.164 4.92377C16.164 4.75383 16.1584 4.58975 16.1505 4.42684C16.8829 3.88538 17.4982 3.20913 18 2.43092Z" fill="#489DFF"/>
</svg>
